<svg xmlns="http://www.w3.org/2000/svg" width="800" height="260" viewBox="0 0 800 260"><g class="x-axis"><g class="x-tick"><line x1="56" y1="234" x2="56" y2="238" stroke="#999" stroke-width="1"/><text x="56" y="250" text-anchor="middle" font-size="10" fill="#555">0.0</text></g><g class="x-tick"><line x1="201.6" y1="234" x2="201.6" y2="238" stroke="#999" stroke-width="1"/><text x="201.6" y="250" text-anchor="middle" font-size="10" fill="#555">0.0</text></g><g class="x-tick"><line x1="347.2" y1="234" x2="347.2" y2="238" stroke="#999" stroke-width="1"/><text x="347.2" y="250" text-anchor="middle" font-size="10" fill="#555">0.1</text></g><g class="x-tick"><line x1="492.8" y1="234" x2="492.8" y2="238" stroke="#999" stroke-width="1"/><text x="492.8" y="250" text-anchor="middle" font-size="10" fill="#555">0.1</text></g><g class="x-tick"><line x1="638.4" y1="234" x2="638.4" y2="238" stroke="#999" stroke-width="1"/><text x="638.4" y="250" text-anchor="middle" font-size="10" fill="#555">0.1</text></g><g class="x-tick"><line x1="784" y1="234" x2="784" y2="238" stroke="#999" stroke-width="1"/><text x="784" y="250" text-anchor="middle" font-size="10" fill="#555">0.1</text></g></g><g class="series"><polyline points="73.62,146.64 91.53,128.55 109.73,110.47 128.22,92.38 147,110.47 166.07,121.98 183.4,118.69 201.02,115.4 218.93,112.11 237.13,108.82 255.62,105.53 274.4,102.24 293.47,98.96 310.8,95.67 328.42,110.47 346.33,92.38 364.53,74.29 383.02,69.77 401.8,65.25" fill="none" stroke="#008b6d" stroke-width="1.8"/><polyline points="419.71,47.16 437.91,42.64 456.4,83.34 475.18,100.42 494.24,110.47 511.58,115.4 529.2,112.11 547.11,108.82 565.31,105.53 583.8,102.24 602.58,98.96 621.64,95.67 638.98,125.26 656.6,121.98 674.51,118.69 692.71,115.4 711.2,110.47 729.98,108.46 749.04,110.47 766.38,118.22 784,134.58" fill="none" stroke="#008b6d" stroke-width="1.8"/><polyline points="73.62,146.64 91.53,131.78 109.73,116.93 128.22,102.07 147,87.21 166.07,72.35 183.4,42.64 201.02,48.04 218.93,53.45 237.13,58.85 255.62,64.25 274.4,69.65 293.47,75.06 310.8,80.46 328.42,90.18 346.33,105.37 364.53,128.07 383.02,135.5 401.8,94.64" fill="none" stroke="#8955b5" stroke-width="1.8"/><polyline points="419.71,76.07 437.91,83.5 456.4,90.93 475.18,92.16 494.24,90.18 511.58,85.86 529.2,91.26 547.11,96.67 565.31,102.07 583.8,72.35 602.58,42.64 621.64,48.04 638.98,53.45 656.6,58.85 674.51,64.25 692.71,69.65 711.2,72.35 729.98,78.96 749.04,90.93 766.38,110.56 784,141.69" fill="none" stroke="#8955b5" stroke-width="1.8"/></g><g class="legend"><g class="legend-item"><rect x="56" y="8" width="10" height="10" fill="#008b6d"/><text x="70" y="17" font-size="11" fill="#333">Ground contact time</text></g><g class="legend-item"><rect x="219" y="8" width="10" height="10" fill="#8955b5"/><text x="233" y="17" font-size="11" fill="#333">Leg spring stiffness</text></g></g></svg>